<?xml version="1.0" encoding="utf-8"?>
<!-- Generator: Adobe Illustrator 23.0.3, SVG Export Plug-In . SVG Version: 6.00 Build 0)  -->
<svg version="1.1" xmlns="http://www.w3.org/2000/svg" xmlns:xlink="http://www.w3.org/1999/xlink" x="0px" y="0px"
	 viewBox="0 0 110.9 48.5" style="enable-background:new 0 0 110.9 48.5;" xml:space="preserve">
<style type="text/css">
	.st0{fill:#676462;}
	.st1{fill-rule:evenodd;clip-rule:evenodd;fill:#16BED5;}
	.st2{fill-rule:evenodd;clip-rule:evenodd;fill:#FFFFFF;}
	.st3{fill:#FFFFFF;}
	.st4{fill:#16BED5;}
	.st5{fill:#FFFFFF;stroke:#FFFFFF;stroke-width:0.25;stroke-miterlimit:10;}
	.st6{font-family:'RobotoMono-Medium';}
	.st7{font-size:30.8989px;}
	.st8{letter-spacing:1;}
	.st9{fill:none;}
</style>
<g id="Слой_2">
	<rect x="0" class="st0" width="110.9" height="48.5"/>
</g>
<g id="Слой_1">
	<g id="codecamp">
		<g id="camp">
			<path id="path-1" class="st1" d="M16,39.5l7,7h7l-14-19"/>
			<path id="path-2" class="st2" d="M0,46.5v2h32v-2l-15-20l4-5v-2l-5,6l-5-6v2l4,5L0,46.5h30l-14-19v12l-7,7"/>
		</g>
		<g id="code">
			<path id="path-3" class="st1" d="M37,43.5v-2h14v2H37z M42,33.5h9v2h-9V33.5z M30,37.5h7v2h-7V37.5z M23,29.5h10v2H23V29.5z
				 M20,25.5h6v2h-6V25.5z M37,47.5h-3v-2h3V47.5z"/>
			<path id="path-4" class="st2" d="M39,47.5v-2h12v2H39z M39,37.5h12v2H39V37.5z M35,29.5h16v2H35V29.5z M28,25.5h23v2H28V25.5z
				 M40,35.5H27v-2h13V35.5z M35,43.5h-3v-2h3V43.5z"/>
		</g>
		<polygon class="st3" points="27,0 25.8,0 15.4,26.5 16.5,26.5 		"/>
		<polygon class="st3" points="54.4,0 28.6,0 22.5,15.6 48.3,15.6 		"/>
		<polygon class="st4" points="54.4,0 47,0 37.6,15.6 48.3,15.6 		"/>
	</g>
	<text transform="matrix(1 0 0 0.92 54.3923 21.1532)"><tspan x="0" y="0" class="st5 st6 st7 st8">ЛKЛ</tspan><tspan x="0" y="28" class="st5 st6 st7 st8">CTF</tspan></text>
	<polygon class="st9" points="54.4,0 28.6,0 22.5,15.6 48.3,15.6 	"/>
</g>
</svg>
